<?xml version="1.0" standalone="no"?>
<!DOCTYPE svg PUBLIC "-//W3C//DTD SVG 20010904//EN"
 "http://www.w3.org/TR/2001/REC-SVG-20010904/DTD/svg10.dtd">
<svg version="1.0" xmlns="http://www.w3.org/2000/svg"
 width="320.000000pt" height="320.000000pt" viewBox="0 0 320.000000 320.000000"
 preserveAspectRatio="xMidYMid meet">
<metadata>
Created by potrace 1.11, written by Peter Selinger 2001-2013
</metadata>
<g transform="translate(0.000000,320.000000) scale(0.100000,-0.100000)"
fill="#000000" stroke="none">
<path d="M1330 3071 c-456 -87 -837 -370 -1054 -783 -120 -227 -166 -434 -161
-718 4 -256 38 -401 150 -635 125 -263 350 -498 627 -654 93 -52 285 -120 414
-146 162 -33 420 -36 570 -5 224 45 384 109 554 223 315 210 532 518 627 893
26 104 28 120 28 349 0 216 -2 249 -23 335 -141 586 -581 1016 -1158 1134
-155 31 -426 35 -574 7z m865 -278 c10 -46 20 -58 56 -63 26 -4 35 -11 37 -27
3 -17 -3 -24 -25 -28 -45 -10 -58 -20 -61 -51 -5 -40 -21 -58 -38 -43 -8 6
-14 20 -14 31 0 35 -19 58 -49 58 -34 0 -60 25 -44 41 6 6 26 14 44 18 25 5
35 14 42 36 5 17 10 36 12 43 8 23 35 12 40 -15z m-1090 -18 c19 -18 25 -35
25 -69 0 -37 -5 -48 -31 -70 -40 -34 -88 -34 -126 -2 -23 20 -28 32 -28 71 0
39 5 51 28 71 39 33 99 33 132 -1z m765 -245 c78 -22 225 -94 273 -132 l28
-23 -229 -195 c-125 -107 -322 -274 -435 -370 l-207 -175 2 -146 c3 -140 4
-147 30 -187 53 -79 31 -76 586 -82 l494 -5 -43 -64 c-24 -36 -69 -93 -102
-127 l-58 -63 -569 -1 c-313 0 -575 -3 -583 -6 -37 -14 -183 160 -252 299
-260 528 49 1162 630 1291 103 23 334 16 435 -14z m401 -257 c162 -178 242
-383 242 -628 0 -132 -20 -248 -57 -337 l-16 -38 -144 0 c-134 0 -146 2 -192
26 -55 29 -176 119 -213 158 l-25 26 -43 -42 c-35 -34 -47 -41 -60 -32 -29 18
-26 31 16 76 l40 44 -41 51 c-34 44 -43 50 -58 41 -39 -25 -67 17 -34 53 14
16 12 23 -21 88 -19 40 -33 76 -30 81 3 6 50 48 103 94 53 46 178 154 277 240
99 86 185 156 191 156 7 0 36 -26 65 -57z m-1797 -798 c10 -34 16 -41 49 -48
63 -15 59 -56 -5 -57 -31 0 -40 -11 -48 -60 -9 -56 -41 -44 -55 22 -4 20 -13
29 -33 33 -66 14 -77 44 -22 58 47 12 60 24 60 57 0 56 38 53 54 -5z m2350
-231 c39 -40 37 -103 -5 -138 -43 -36 -91 -35 -130 3 -21 22 -29 39 -29 66 0
83 105 127 164 69z m-628 -346 c84 -46 110 -135 58 -198 -53 -62 -30 -60 -632
-60 l-549 0 -33 23 c-115 78 -92 215 43 247 17 5 268 8 557 7 475 -2 528 -4
556 -19z"/>
<path d="M998 2725 c-9 -21 -8 -28 7 -45 31 -34 75 -20 75 25 0 48 -62 63 -82
20z"/>
<path d="M1033 1580 c-72 -43 -84 -148 -24 -202 76 -68 182 -38 212 60 10 35
9 45 -7 78 -37 76 -117 104 -181 64z m95 -66 c25 -18 30 -64 7 -64 -9 0 -18 7
-21 15 -4 8 -12 15 -19 15 -7 0 -15 -7 -19 -15 -9 -25 -36 -18 -36 9 0 24 32
56 55 56 6 0 21 -7 33 -16z"/>
<path d="M2720 1200 c-15 -29 -3 -59 26 -66 30 -8 54 11 54 40 0 46 -59 64
-80 26z"/>
</g>
</svg>
